# xmcd CD database file
#
# Track frame offsets:
#	150
#	14097
#	27519
#	41897
#	52345
#	67577
#	79420
#	93187
#	105585
#	119340
#	130717
#	141385
#	155327
#	169395
#	184497
#	194500
#	209632
#	222507
#	236142
#	248972
#	260530
#	271897
#	284847
#	296697
#	310732
#
# Disc length: 4299 seconds
#
# Revision: 0
# Processed by: cddbd v1.5.2PL0 Copyright (c) Steve Scherf et al.
# Submitted via: CDex 1.51
#
DISCID=9810c919
DTITLE=The Ramblers - Dutch Jazz Masters - The Ramblers
DYEAR=1999
DGENRE=Jazz
TTITLE0=Magnolia
TTITLE1=Chinatown, my Chinatown
TTITLE2=Decca Stomp
TTITLE3=Alabama Swing
TTITLE4=Farewell Blues
TTITLE5=After you've gone
TTITLE6=Meditation
TTITLE7=Wah hoo
TTITLE8=Black bottom
TTITLE9=My blue heaven
TTITLE10=Broadway Shuffle (Promenade)
TTITLE11=Zuiderzee Blues
TTITLE12=Beale Street Blues
TTITLE13=Liza likes nobody
TTITLE14=At The Ramblers ball
TTITLE15=Twee klaveren
TTITLE16=Bouncin' in Bavaria
TTITLE17=Re-bop Festival
TTITLE18=Sidewalks of Cuba
TTITLE19=Strike up the band
TTITLE20=Linger a while
TTITLE21=Yearning
TTITLE22=Interlude
TTITLE23=Bud's Blues
TTITLE24=Coupe Negresco
EXTD=YEAR: 1999
EXTT0=
EXTT1=
EXTT2=
EXTT3=
EXTT4=
EXTT5=
EXTT6=
EXTT7=
EXTT8=
EXTT9=
EXTT10=
EXTT11=
EXTT12=
EXTT13=
EXTT14=
EXTT15=
EXTT16=
EXTT17=
EXTT18=
EXTT19=
EXTT20=
EXTT21=
EXTT22=
EXTT23=
EXTT24=
PLAYORDER=
